<mxfile host="app.diagrams.net" agent="Mozilla/5.0 (Windows NT 10.0; Win64; x64) AppleWebKit/537.36 (KHTML, like Gecko) Chrome/127.0.0.0 Safari/537.36" version="24.7.7">
  <diagram name="Page-1" id="6h4aRHLemwYXuyL-VMiY">
    <mxGraphModel dx="1312" dy="612" grid="0" gridSize="10" guides="1" tooltips="1" connect="1" arrows="1" fold="1" page="1" pageScale="1" pageWidth="850" pageHeight="1100" math="0" shadow="0">
      <root>
        <mxCell id="0" />
        <mxCell id="1" parent="0" />
        <mxCell id="as6Bhv_U-mF8oLlvsq7q-39" value="&lt;div&gt;Authorized User Only&lt;/div&gt;" style="rounded=0;whiteSpace=wrap;html=1;fillColor=none;align=right;verticalAlign=top;" parent="1" vertex="1">
          <mxGeometry x="59" y="822" width="342" height="260" as="geometry" />
        </mxCell>
        <mxCell id="as6Bhv_U-mF8oLlvsq7q-5" style="rounded=0;orthogonalLoop=1;jettySize=auto;html=1;exitX=0;exitY=0.3333333333333333;exitDx=0;exitDy=0;exitPerimeter=0;endArrow=none;endFill=0;entryX=1;entryY=0.5;entryDx=0;entryDy=0;" parent="1" source="as6Bhv_U-mF8oLlvsq7q-1" target="as6Bhv_U-mF8oLlvsq7q-3" edge="1">
          <mxGeometry relative="1" as="geometry" />
        </mxCell>
        <mxCell id="as6Bhv_U-mF8oLlvsq7q-6" style="rounded=0;orthogonalLoop=1;jettySize=auto;html=1;exitX=0;exitY=0.3333333333333333;exitDx=0;exitDy=0;exitPerimeter=0;endArrow=none;endFill=0;entryX=1;entryY=0.5;entryDx=0;entryDy=0;" parent="1" source="as6Bhv_U-mF8oLlvsq7q-1" target="as6Bhv_U-mF8oLlvsq7q-4" edge="1">
          <mxGeometry relative="1" as="geometry" />
        </mxCell>
        <mxCell id="as6Bhv_U-mF8oLlvsq7q-1" value="Unauthorized User" style="shape=umlActor;verticalLabelPosition=bottom;verticalAlign=top;html=1;outlineConnect=0;" parent="1" vertex="1">
          <mxGeometry x="672" y="242" width="30" height="60" as="geometry" />
        </mxCell>
        <mxCell id="as6Bhv_U-mF8oLlvsq7q-2" value="Authorized User" style="shape=umlActor;verticalLabelPosition=bottom;verticalAlign=top;html=1;outlineConnect=0;" parent="1" vertex="1">
          <mxGeometry x="38" y="242" width="30" height="60" as="geometry" />
        </mxCell>
        <mxCell id="as6Bhv_U-mF8oLlvsq7q-3" value="Dashboard" style="ellipse;whiteSpace=wrap;html=1;" parent="1" vertex="1">
          <mxGeometry x="469" y="142" width="120" height="80" as="geometry" />
        </mxCell>
        <mxCell id="as6Bhv_U-mF8oLlvsq7q-4" value="Login" style="ellipse;whiteSpace=wrap;html=1;" parent="1" vertex="1">
          <mxGeometry x="469" y="222" width="120" height="80" as="geometry" />
        </mxCell>
        <mxCell id="as6Bhv_U-mF8oLlvsq7q-7" value="Logout" style="ellipse;whiteSpace=wrap;html=1;" parent="1" vertex="1">
          <mxGeometry x="143" y="101" width="120" height="80" as="geometry" />
        </mxCell>
        <mxCell id="as6Bhv_U-mF8oLlvsq7q-57" style="rounded=0;orthogonalLoop=1;jettySize=auto;html=1;exitX=1;exitY=0.5;exitDx=0;exitDy=0;entryX=0;entryY=0.5;entryDx=0;entryDy=0;" parent="1" source="as6Bhv_U-mF8oLlvsq7q-8" target="as6Bhv_U-mF8oLlvsq7q-4" edge="1">
          <mxGeometry relative="1" as="geometry" />
        </mxCell>
        <mxCell id="as6Bhv_U-mF8oLlvsq7q-8" value="Forget Password" style="ellipse;whiteSpace=wrap;html=1;" parent="1" vertex="1">
          <mxGeometry x="306" y="222" width="120" height="80" as="geometry" />
        </mxCell>
        <mxCell id="as6Bhv_U-mF8oLlvsq7q-10" value="Unauthorized" style="ellipse;whiteSpace=wrap;html=1;" parent="1" vertex="1">
          <mxGeometry x="469" y="302" width="120" height="80" as="geometry" />
        </mxCell>
        <mxCell id="as6Bhv_U-mF8oLlvsq7q-11" style="rounded=0;orthogonalLoop=1;jettySize=auto;html=1;exitX=0;exitY=0.3333333333333333;exitDx=0;exitDy=0;exitPerimeter=0;endArrow=none;endFill=0;entryX=1;entryY=0.5;entryDx=0;entryDy=0;" parent="1" source="as6Bhv_U-mF8oLlvsq7q-1" target="as6Bhv_U-mF8oLlvsq7q-10" edge="1">
          <mxGeometry relative="1" as="geometry">
            <mxPoint x="129" y="312" as="sourcePoint" />
            <mxPoint x="489" y="329" as="targetPoint" />
          </mxGeometry>
        </mxCell>
        <mxCell id="as6Bhv_U-mF8oLlvsq7q-12" style="rounded=0;orthogonalLoop=1;jettySize=auto;html=1;exitX=1;exitY=0.3333333333333333;exitDx=0;exitDy=0;exitPerimeter=0;endArrow=none;endFill=0;entryX=0;entryY=0.5;entryDx=0;entryDy=0;" parent="1" source="as6Bhv_U-mF8oLlvsq7q-2" target="as6Bhv_U-mF8oLlvsq7q-7" edge="1">
          <mxGeometry relative="1" as="geometry">
            <mxPoint x="3" y="-59" as="sourcePoint" />
            <mxPoint x="357" y="36" as="targetPoint" />
          </mxGeometry>
        </mxCell>
        <mxCell id="as6Bhv_U-mF8oLlvsq7q-13" value="My Profile" style="ellipse;whiteSpace=wrap;html=1;" parent="1" vertex="1">
          <mxGeometry x="143" y="181" width="120" height="80" as="geometry" />
        </mxCell>
        <mxCell id="as6Bhv_U-mF8oLlvsq7q-14" value="Change Password" style="ellipse;whiteSpace=wrap;html=1;" parent="1" vertex="1">
          <mxGeometry x="143" y="261" width="120" height="80" as="geometry" />
        </mxCell>
        <mxCell id="as6Bhv_U-mF8oLlvsq7q-15" value="Products" style="ellipse;whiteSpace=wrap;html=1;" parent="1" vertex="1">
          <mxGeometry x="143" y="341" width="120" height="80" as="geometry" />
        </mxCell>
        <mxCell id="as6Bhv_U-mF8oLlvsq7q-59" style="rounded=0;orthogonalLoop=1;jettySize=auto;html=1;exitX=0;exitY=0.5;exitDx=0;exitDy=0;entryX=1;entryY=0.5;entryDx=0;entryDy=0;" parent="1" source="as6Bhv_U-mF8oLlvsq7q-16" target="as6Bhv_U-mF8oLlvsq7q-15" edge="1">
          <mxGeometry relative="1" as="geometry" />
        </mxCell>
        <mxCell id="as6Bhv_U-mF8oLlvsq7q-60" style="rounded=0;orthogonalLoop=1;jettySize=auto;html=1;exitX=0.5;exitY=1;exitDx=0;exitDy=0;" parent="1" source="as6Bhv_U-mF8oLlvsq7q-16" target="as6Bhv_U-mF8oLlvsq7q-17" edge="1">
          <mxGeometry relative="1" as="geometry" />
        </mxCell>
        <mxCell id="as6Bhv_U-mF8oLlvsq7q-16" value="Product Details" style="ellipse;whiteSpace=wrap;html=1;" parent="1" vertex="1">
          <mxGeometry x="303" y="341" width="120" height="80" as="geometry" />
        </mxCell>
        <mxCell id="as6Bhv_U-mF8oLlvsq7q-17" value="Invalid Product Details" style="ellipse;whiteSpace=wrap;html=1;" parent="1" vertex="1">
          <mxGeometry x="305" y="459" width="120" height="80" as="geometry" />
        </mxCell>
        <mxCell id="as6Bhv_U-mF8oLlvsq7q-18" style="rounded=0;orthogonalLoop=1;jettySize=auto;html=1;exitX=1;exitY=0.3333333333333333;exitDx=0;exitDy=0;exitPerimeter=0;endArrow=none;endFill=0;entryX=0;entryY=0.5;entryDx=0;entryDy=0;" parent="1" source="as6Bhv_U-mF8oLlvsq7q-2" target="as6Bhv_U-mF8oLlvsq7q-13" edge="1">
          <mxGeometry relative="1" as="geometry">
            <mxPoint x="3" y="51" as="sourcePoint" />
            <mxPoint x="156" y="88" as="targetPoint" />
          </mxGeometry>
        </mxCell>
        <mxCell id="as6Bhv_U-mF8oLlvsq7q-19" style="rounded=0;orthogonalLoop=1;jettySize=auto;html=1;exitX=1;exitY=0.3333333333333333;exitDx=0;exitDy=0;exitPerimeter=0;endArrow=none;endFill=0;entryX=0;entryY=0.5;entryDx=0;entryDy=0;" parent="1" source="as6Bhv_U-mF8oLlvsq7q-2" target="as6Bhv_U-mF8oLlvsq7q-14" edge="1">
          <mxGeometry relative="1" as="geometry">
            <mxPoint x="13" y="61" as="sourcePoint" />
            <mxPoint x="166" y="98" as="targetPoint" />
          </mxGeometry>
        </mxCell>
        <mxCell id="as6Bhv_U-mF8oLlvsq7q-20" style="rounded=0;orthogonalLoop=1;jettySize=auto;html=1;exitX=1;exitY=0.3333333333333333;exitDx=0;exitDy=0;exitPerimeter=0;endArrow=none;endFill=0;entryX=0;entryY=0.5;entryDx=0;entryDy=0;" parent="1" source="as6Bhv_U-mF8oLlvsq7q-2" target="as6Bhv_U-mF8oLlvsq7q-15" edge="1">
          <mxGeometry relative="1" as="geometry">
            <mxPoint x="23" y="71" as="sourcePoint" />
            <mxPoint x="176" y="108" as="targetPoint" />
          </mxGeometry>
        </mxCell>
        <mxCell id="as6Bhv_U-mF8oLlvsq7q-25" value="&lt;h1 style=&quot;margin-top: 0px;&quot;&gt;Use Case Diagram&lt;/h1&gt;" style="text;html=1;whiteSpace=wrap;overflow=hidden;rounded=0;" parent="1" vertex="1">
          <mxGeometry x="276" y="11" width="224" height="44" as="geometry" />
        </mxCell>
        <mxCell id="as6Bhv_U-mF8oLlvsq7q-26" value="Dashboard" style="rounded=0;whiteSpace=wrap;html=1;" parent="1" vertex="1">
          <mxGeometry x="78" y="667" width="80" height="40" as="geometry" />
        </mxCell>
        <mxCell id="as6Bhv_U-mF8oLlvsq7q-33" style="edgeStyle=orthogonalEdgeStyle;rounded=0;orthogonalLoop=1;jettySize=auto;html=1;exitX=0.25;exitY=1;exitDx=0;exitDy=0;entryX=0.5;entryY=0;entryDx=0;entryDy=0;" parent="1" source="as6Bhv_U-mF8oLlvsq7q-27" target="as6Bhv_U-mF8oLlvsq7q-32" edge="1">
          <mxGeometry relative="1" as="geometry" />
        </mxCell>
        <mxCell id="as6Bhv_U-mF8oLlvsq7q-27" value="Login" style="rounded=0;whiteSpace=wrap;html=1;" parent="1" vertex="1">
          <mxGeometry x="198" y="667" width="80" height="40" as="geometry" />
        </mxCell>
        <mxCell id="as6Bhv_U-mF8oLlvsq7q-28" value="Forget Password" style="rounded=0;whiteSpace=wrap;html=1;" parent="1" vertex="1">
          <mxGeometry x="318" y="667" width="80" height="40" as="geometry" />
        </mxCell>
        <mxCell id="YIAmcWH7yxHLLpGST_WR-5" style="edgeStyle=orthogonalEdgeStyle;rounded=0;orthogonalLoop=1;jettySize=auto;html=1;exitX=0.5;exitY=0;exitDx=0;exitDy=0;entryX=0.75;entryY=1;entryDx=0;entryDy=0;" edge="1" parent="1" source="as6Bhv_U-mF8oLlvsq7q-29" target="as6Bhv_U-mF8oLlvsq7q-27">
          <mxGeometry relative="1" as="geometry" />
        </mxCell>
        <mxCell id="as6Bhv_U-mF8oLlvsq7q-29" value="Unauthorized" style="rounded=0;whiteSpace=wrap;html=1;" parent="1" vertex="1">
          <mxGeometry x="241" y="747" width="80" height="40" as="geometry" />
        </mxCell>
        <mxCell id="as6Bhv_U-mF8oLlvsq7q-30" value="" style="endArrow=classic;html=1;rounded=0;exitX=1;exitY=0.5;exitDx=0;exitDy=0;entryX=0;entryY=0.5;entryDx=0;entryDy=0;" parent="1" source="as6Bhv_U-mF8oLlvsq7q-26" target="as6Bhv_U-mF8oLlvsq7q-27" edge="1">
          <mxGeometry width="50" height="50" relative="1" as="geometry">
            <mxPoint x="408" y="637" as="sourcePoint" />
            <mxPoint x="458" y="587" as="targetPoint" />
          </mxGeometry>
        </mxCell>
        <mxCell id="as6Bhv_U-mF8oLlvsq7q-31" value="" style="endArrow=classic;startArrow=classic;html=1;rounded=0;exitX=1;exitY=0.5;exitDx=0;exitDy=0;entryX=0;entryY=0.5;entryDx=0;entryDy=0;" parent="1" source="as6Bhv_U-mF8oLlvsq7q-27" target="as6Bhv_U-mF8oLlvsq7q-28" edge="1">
          <mxGeometry width="50" height="50" relative="1" as="geometry">
            <mxPoint x="408" y="637" as="sourcePoint" />
            <mxPoint x="458" y="587" as="targetPoint" />
          </mxGeometry>
        </mxCell>
        <mxCell id="as6Bhv_U-mF8oLlvsq7q-32" value="My Profile" style="rounded=0;whiteSpace=wrap;html=1;" parent="1" vertex="1">
          <mxGeometry x="178.5" y="862" width="80" height="40" as="geometry" />
        </mxCell>
        <mxCell id="as6Bhv_U-mF8oLlvsq7q-34" value="Change Password" style="rounded=0;whiteSpace=wrap;html=1;" parent="1" vertex="1">
          <mxGeometry x="118.5" y="935" width="80" height="40" as="geometry" />
        </mxCell>
        <mxCell id="as6Bhv_U-mF8oLlvsq7q-35" value="" style="endArrow=classic;startArrow=classic;html=1;rounded=0;exitX=0.25;exitY=1;exitDx=0;exitDy=0;entryX=0.75;entryY=0;entryDx=0;entryDy=0;" parent="1" source="as6Bhv_U-mF8oLlvsq7q-32" target="as6Bhv_U-mF8oLlvsq7q-34" edge="1">
          <mxGeometry width="50" height="50" relative="1" as="geometry">
            <mxPoint x="336.5" y="772" as="sourcePoint" />
            <mxPoint x="386.5" y="722" as="targetPoint" />
          </mxGeometry>
        </mxCell>
        <mxCell id="as6Bhv_U-mF8oLlvsq7q-36" value="Products" style="rounded=0;whiteSpace=wrap;html=1;" parent="1" vertex="1">
          <mxGeometry x="238.5" y="935" width="80" height="40" as="geometry" />
        </mxCell>
        <mxCell id="as6Bhv_U-mF8oLlvsq7q-37" value="" style="endArrow=classic;startArrow=classic;html=1;rounded=0;entryX=0;entryY=0.5;entryDx=0;entryDy=0;exitX=1;exitY=0.5;exitDx=0;exitDy=0;" parent="1" source="as6Bhv_U-mF8oLlvsq7q-34" target="as6Bhv_U-mF8oLlvsq7q-36" edge="1">
          <mxGeometry width="50" height="50" relative="1" as="geometry">
            <mxPoint x="336.5" y="742" as="sourcePoint" />
            <mxPoint x="386.5" y="692" as="targetPoint" />
          </mxGeometry>
        </mxCell>
        <mxCell id="as6Bhv_U-mF8oLlvsq7q-41" value="Product Details" style="rounded=0;whiteSpace=wrap;html=1;" parent="1" vertex="1">
          <mxGeometry x="188.5" y="1022" width="80" height="40" as="geometry" />
        </mxCell>
        <mxCell id="as6Bhv_U-mF8oLlvsq7q-42" value="Invalid Product Details" style="rounded=0;whiteSpace=wrap;html=1;" parent="1" vertex="1">
          <mxGeometry x="278.5" y="1022" width="95" height="40" as="geometry" />
        </mxCell>
        <mxCell id="as6Bhv_U-mF8oLlvsq7q-43" value="" style="endArrow=classic;startArrow=classic;html=1;rounded=0;entryX=0.5;entryY=1;entryDx=0;entryDy=0;exitX=0.5;exitY=0;exitDx=0;exitDy=0;edgeStyle=orthogonalEdgeStyle;" parent="1" source="as6Bhv_U-mF8oLlvsq7q-41" target="as6Bhv_U-mF8oLlvsq7q-36" edge="1">
          <mxGeometry width="50" height="50" relative="1" as="geometry">
            <mxPoint x="306.5" y="732" as="sourcePoint" />
            <mxPoint x="356.5" y="682" as="targetPoint" />
          </mxGeometry>
        </mxCell>
        <mxCell id="as6Bhv_U-mF8oLlvsq7q-44" value="" style="endArrow=classic;html=1;rounded=0;entryX=0.5;entryY=0;entryDx=0;entryDy=0;exitX=0.5;exitY=1;exitDx=0;exitDy=0;edgeStyle=orthogonalEdgeStyle;" parent="1" source="as6Bhv_U-mF8oLlvsq7q-36" target="as6Bhv_U-mF8oLlvsq7q-42" edge="1">
          <mxGeometry width="50" height="50" relative="1" as="geometry">
            <mxPoint x="306.5" y="732" as="sourcePoint" />
            <mxPoint x="356.5" y="682" as="targetPoint" />
          </mxGeometry>
        </mxCell>
        <mxCell id="as6Bhv_U-mF8oLlvsq7q-53" value="Login&amp;nbsp;&lt;div&gt;&lt;span style=&quot;background-color: initial;&quot;&gt;Successfully&lt;/span&gt;&lt;/div&gt;" style="text;html=1;align=right;verticalAlign=middle;whiteSpace=wrap;rounded=0;fillColor=default;" parent="1" vertex="1">
          <mxGeometry x="141" y="752" width="70" height="30" as="geometry" />
        </mxCell>
        <mxCell id="as6Bhv_U-mF8oLlvsq7q-56" value="&lt;h1 style=&quot;margin-top: 0px;&quot;&gt;Navigation Flow&lt;/h1&gt;" style="text;html=1;whiteSpace=wrap;overflow=hidden;rounded=0;" parent="1" vertex="1">
          <mxGeometry x="141" y="587" width="187" height="44" as="geometry" />
        </mxCell>
        <mxCell id="as6Bhv_U-mF8oLlvsq7q-61" value="Product Not Found" style="text;html=1;align=center;verticalAlign=middle;whiteSpace=wrap;rounded=0;" parent="1" vertex="1">
          <mxGeometry x="380" y="425" width="116" height="30" as="geometry" />
        </mxCell>
        <mxCell id="as6Bhv_U-mF8oLlvsq7q-65" value="Include" style="text;html=1;align=center;verticalAlign=middle;whiteSpace=wrap;rounded=0;" parent="1" vertex="1">
          <mxGeometry x="416" y="231" width="60" height="30" as="geometry" />
        </mxCell>
        <mxCell id="as6Bhv_U-mF8oLlvsq7q-66" value="Include" style="text;html=1;align=center;verticalAlign=middle;whiteSpace=wrap;rounded=0;" parent="1" vertex="1">
          <mxGeometry x="256" y="341" width="60" height="30" as="geometry" />
        </mxCell>
        <mxCell id="as6Bhv_U-mF8oLlvsq7q-67" value="" style="rounded=0;whiteSpace=wrap;html=1;fillColor=none;" parent="1" vertex="1">
          <mxGeometry x="116" y="81" width="500" height="480" as="geometry" />
        </mxCell>
        <mxCell id="gtmcrclWsPZU6SZJLI6x-1" value="Landing Page" style="text;html=1;align=center;verticalAlign=middle;whiteSpace=wrap;rounded=0;" parent="1" vertex="1">
          <mxGeometry x="78" y="637" width="85" height="30" as="geometry" />
        </mxCell>
        <mxCell id="gtmcrclWsPZU6SZJLI6x-2" value="" style="endArrow=classic;startArrow=classic;html=1;rounded=0;entryX=0.25;entryY=0;entryDx=0;entryDy=0;" parent="1" source="as6Bhv_U-mF8oLlvsq7q-32" target="as6Bhv_U-mF8oLlvsq7q-36" edge="1">
          <mxGeometry width="50" height="50" relative="1" as="geometry">
            <mxPoint x="171.5" y="932" as="sourcePoint" />
            <mxPoint x="221.5" y="882" as="targetPoint" />
          </mxGeometry>
        </mxCell>
        <mxCell id="gtmcrclWsPZU6SZJLI6x-7" value="Unauthorized User Trying to Access" style="text;html=1;align=center;verticalAlign=middle;whiteSpace=wrap;rounded=0;" parent="1" vertex="1">
          <mxGeometry x="287" y="792" width="210" height="30" as="geometry" />
        </mxCell>
        <mxCell id="qlI3QJSRjc4aF7dmRZrX-1" value="API Controller" style="rounded=0;whiteSpace=wrap;html=1;" parent="1" vertex="1">
          <mxGeometry x="594.5" y="827" width="80" height="40" as="geometry" />
        </mxCell>
        <mxCell id="qlI3QJSRjc4aF7dmRZrX-16" style="edgeStyle=orthogonalEdgeStyle;rounded=0;orthogonalLoop=1;jettySize=auto;html=1;exitX=0.5;exitY=0;exitDx=0;exitDy=0;entryX=0.5;entryY=1;entryDx=0;entryDy=0;" parent="1" source="qlI3QJSRjc4aF7dmRZrX-3" target="qlI3QJSRjc4aF7dmRZrX-4" edge="1">
          <mxGeometry relative="1" as="geometry" />
        </mxCell>
        <mxCell id="qlI3QJSRjc4aF7dmRZrX-3" value="Db Context" style="rounded=0;whiteSpace=wrap;html=1;" parent="1" vertex="1">
          <mxGeometry x="732.5" y="993" width="80" height="40" as="geometry" />
        </mxCell>
        <mxCell id="Uaf4c7BMgzaY-VPKB1kA-1" style="edgeStyle=orthogonalEdgeStyle;rounded=0;orthogonalLoop=1;jettySize=auto;html=1;exitX=0.5;exitY=0;exitDx=0;exitDy=0;entryX=0.5;entryY=1;entryDx=0;entryDy=0;" parent="1" source="qlI3QJSRjc4aF7dmRZrX-4" target="qlI3QJSRjc4aF7dmRZrX-1" edge="1">
          <mxGeometry relative="1" as="geometry" />
        </mxCell>
        <mxCell id="qlI3QJSRjc4aF7dmRZrX-4" value="Entities" style="rounded=0;whiteSpace=wrap;html=1;" parent="1" vertex="1">
          <mxGeometry x="641" y="910" width="83" height="40" as="geometry" />
        </mxCell>
        <mxCell id="qlI3QJSRjc4aF7dmRZrX-7" style="edgeStyle=orthogonalEdgeStyle;rounded=0;orthogonalLoop=1;jettySize=auto;html=1;exitX=0.5;exitY=0;exitDx=0;exitDy=0;" parent="1" source="qlI3QJSRjc4aF7dmRZrX-5" target="qlI3QJSRjc4aF7dmRZrX-4" edge="1">
          <mxGeometry relative="1" as="geometry" />
        </mxCell>
        <mxCell id="qlI3QJSRjc4aF7dmRZrX-5" value="Models" style="rounded=0;whiteSpace=wrap;html=1;" parent="1" vertex="1">
          <mxGeometry x="550" y="993" width="80" height="37" as="geometry" />
        </mxCell>
        <mxCell id="qlI3QJSRjc4aF7dmRZrX-8" style="edgeStyle=orthogonalEdgeStyle;rounded=0;orthogonalLoop=1;jettySize=auto;html=1;exitX=0.5;exitY=0;exitDx=0;exitDy=0;" parent="1" source="qlI3QJSRjc4aF7dmRZrX-6" target="qlI3QJSRjc4aF7dmRZrX-4" edge="1">
          <mxGeometry relative="1" as="geometry" />
        </mxCell>
        <mxCell id="qlI3QJSRjc4aF7dmRZrX-6" value="Data Transfer Objects" style="rounded=0;whiteSpace=wrap;html=1;" parent="1" vertex="1">
          <mxGeometry x="642.5" y="993" width="80" height="37" as="geometry" />
        </mxCell>
        <mxCell id="qlI3QJSRjc4aF7dmRZrX-18" style="edgeStyle=orthogonalEdgeStyle;rounded=0;orthogonalLoop=1;jettySize=auto;html=1;exitX=0.5;exitY=0;exitDx=0;exitDy=0;" parent="1" source="qlI3QJSRjc4aF7dmRZrX-17" target="qlI3QJSRjc4aF7dmRZrX-1" edge="1">
          <mxGeometry relative="1" as="geometry" />
        </mxCell>
        <mxCell id="qlI3QJSRjc4aF7dmRZrX-17" value="Mapping Profile" style="rounded=0;whiteSpace=wrap;html=1;" parent="1" vertex="1">
          <mxGeometry x="550" y="910" width="80" height="40" as="geometry" />
        </mxCell>
        <mxCell id="qlI3QJSRjc4aF7dmRZrX-24" value="&lt;h1 style=&quot;margin-top: 0px;&quot;&gt;Package Diagram&lt;/h1&gt;" style="text;html=1;whiteSpace=wrap;overflow=hidden;rounded=0;" parent="1" vertex="1">
          <mxGeometry x="578.5" y="761" width="208" height="44" as="geometry" />
        </mxCell>
        <mxCell id="YIAmcWH7yxHLLpGST_WR-3" style="edgeStyle=orthogonalEdgeStyle;rounded=0;orthogonalLoop=1;jettySize=auto;html=1;exitX=0.5;exitY=0;exitDx=0;exitDy=0;" edge="1" parent="1" source="YIAmcWH7yxHLLpGST_WR-2" target="as6Bhv_U-mF8oLlvsq7q-26">
          <mxGeometry relative="1" as="geometry" />
        </mxCell>
        <mxCell id="YIAmcWH7yxHLLpGST_WR-2" value="Logout Button" style="rounded=0;whiteSpace=wrap;html=1;" vertex="1" parent="1">
          <mxGeometry x="78" y="862" width="80" height="40" as="geometry" />
        </mxCell>
        <mxCell id="YIAmcWH7yxHLLpGST_WR-4" style="edgeStyle=orthogonalEdgeStyle;rounded=0;orthogonalLoop=1;jettySize=auto;html=1;exitX=0.5;exitY=1;exitDx=0;exitDy=0;entryX=0.649;entryY=0.009;entryDx=0;entryDy=0;entryPerimeter=0;startArrow=classic;startFill=1;endArrow=none;endFill=0;" edge="1" parent="1" source="as6Bhv_U-mF8oLlvsq7q-29" target="as6Bhv_U-mF8oLlvsq7q-39">
          <mxGeometry relative="1" as="geometry" />
        </mxCell>
      </root>
    </mxGraphModel>
  </diagram>
</mxfile>
